<svg height="3854" width="720" xmlns="http://www.w3.org/2000/svg">
<rect height="3854" fill="#555" width="720"></rect>
<text fill="#7f7" font-family="Courier New" font-size="12" xml:space="preserve">
<tspan x="10" y="26">117 megabytes installed</tspan>
<tspan x="10" y="42"></tspan>
<tspan x="10" y="58">node_modules</tspan>
<tspan x="10" y="74">└─┬ ember-prerender@2.5.5 </tspan>
<tspan x="10" y="90">  ├─┬ aws-sdk@2.44.0 </tspan>
<tspan x="10" y="106">  │ ├─┬ buffer@4.9.1 </tspan>
<tspan x="10" y="122">  │ │ ├── base64-js@1.2.0 </tspan>
<tspan x="10" y="138">  │ │ ├── ieee754@1.1.8 </tspan>
<tspan x="10" y="154">  │ │ └── isarray@1.0.0 </tspan>
<tspan x="10" y="170">  │ ├── crypto-browserify@1.0.9 </tspan>
<tspan x="10" y="186">  │ ├── jmespath@0.15.0 </tspan>
<tspan x="10" y="202">  │ ├── querystring@0.2.0 </tspan>
<tspan x="10" y="218">  │ ├── sax@1.2.1 </tspan>
<tspan x="10" y="234">  │ ├─┬ url@0.10.3 </tspan>
<tspan x="10" y="250">  │ │ └── punycode@1.3.2 </tspan>
<tspan x="10" y="266">  │ ├── uuid@3.0.1 </tspan>
<tspan x="10" y="282">  │ ├── xml2js@0.4.17 </tspan>
<tspan x="10" y="298">  │ └─┬ xmlbuilder@4.2.1 </tspan>
<tspan x="10" y="314">  │   └── lodash@4.17.4 </tspan>
<tspan x="10" y="330">  ├─┬ cache-manager@0.19.0 </tspan>
<tspan x="10" y="346">  │ ├── async@0.9.2 </tspan>
<tspan x="10" y="362">  │ └── lru-cache@2.7.3 </tspan>
<tspan x="10" y="378">  ├─┬ chromedriver@2.29.0 </tspan>
<tspan x="10" y="394">  │ ├── adm-zip@0.4.7 </tspan>
<tspan x="10" y="410">  │ ├── kew@0.7.0 </tspan>
<tspan x="10" y="426">  │ ├─┬ mkdirp@0.5.1 </tspan>
<tspan x="10" y="442">  │ │ └── minimist@0.0.8 </tspan>
<tspan x="10" y="458">  │ └─┬ rimraf@2.6.1 </tspan>
<tspan x="10" y="474">  │   └─┬ glob@7.1.1 </tspan>
<tspan x="10" y="490">  │     ├── fs.realpath@1.0.0 </tspan>
<tspan x="10" y="506">  │     ├─┬ inflight@1.0.6 </tspan>
<tspan x="10" y="522">  │     │ └── wrappy@1.0.2 </tspan>
<tspan x="10" y="538">  │     ├─┬ minimatch@3.0.3 </tspan>
<tspan x="10" y="554">  │     │ └─┬ brace-expansion@1.1.7 </tspan>
<tspan x="10" y="570">  │     │   ├── balanced-match@0.4.2 </tspan>
<tspan x="10" y="586">  │     │   └── concat-map@0.0.1 </tspan>
<tspan x="10" y="602">  │     └── once@1.4.0 </tspan>
<tspan x="10" y="618">  ├─┬ cli-color@0.3.3 </tspan>
<tspan x="10" y="634">  │ ├── d@0.1.1 </tspan>
<tspan x="10" y="650">  │ ├─┬ es5-ext@0.10.15 </tspan>
<tspan x="10" y="666">  │ │ ├─┬ es6-iterator@2.0.1 </tspan>
<tspan x="10" y="682">  │ │ │ └── d@1.0.0 </tspan>
<tspan x="10" y="698">  │ │ └─┬ es6-symbol@3.1.1 </tspan>
<tspan x="10" y="714">  │ │   └── d@1.0.0 </tspan>
<tspan x="10" y="730">  │ ├─┬ memoizee@0.3.10 </tspan>
<tspan x="10" y="746">  │ │ ├─┬ es6-weak-map@0.1.4 </tspan>
<tspan x="10" y="762">  │ │ │ ├── es6-iterator@0.1.3 </tspan>
<tspan x="10" y="778">  │ │ │ └── es6-symbol@2.0.1 </tspan>
<tspan x="10" y="794">  │ │ ├─┬ event-emitter@0.3.5 </tspan>
<tspan x="10" y="810">  │ │ │ └── d@1.0.0 </tspan>
<tspan x="10" y="826">  │ │ ├── lru-queue@0.1.0 </tspan>
<tspan x="10" y="842">  │ │ └── next-tick@0.2.2 </tspan>
<tspan x="10" y="858">  │ └─┬ timers-ext@0.1.2 </tspan>
<tspan x="10" y="874">  │   └── next-tick@1.0.0 </tspan>
<tspan x="10" y="890">  ├─┬ jsdom@1.0.2 </tspan>
<tspan x="10" y="906">  │ ├── browser-request@0.3.3 </tspan>
<tspan x="10" y="922">  │ ├─┬ contextify@0.1.15 </tspan>
<tspan x="10" y="938">  │ │ ├── bindings@1.2.1 </tspan>
<tspan x="10" y="954">  │ │ └── nan@2.6.2 </tspan>
<tspan x="10" y="970">  │ ├── cssom@0.3.2 </tspan>
<tspan x="10" y="986">  │ ├── cssstyle@0.2.18 </tspan>
<tspan x="10" y="1002">  │ ├── cssstyle-browserify@0.2.7  (git://github.com/TreehouseJS/CSSStyleDeclaration.git#d288e02\</tspan>
<tspan x="10" y="1018">10ed5fdc5da47317f5c4ca186e3384a34)</tspan>
<tspan x="10" y="1034">  │ ├─┬ htmlparser2@3.9.2 </tspan>
<tspan x="10" y="1050">  │ │ ├── domelementtype@1.3.0 </tspan>
<tspan x="10" y="1066">  │ │ ├── domhandler@2.3.0 </tspan>
<tspan x="10" y="1082">  │ │ ├─┬ domutils@1.5.1 </tspan>
<tspan x="10" y="1098">  │ │ │ └─┬ dom-serializer@0.1.0 </tspan>
<tspan x="10" y="1114">  │ │ │   └── domelementtype@1.1.3 </tspan>
<tspan x="10" y="1130">  │ │ ├── entities@1.1.1 </tspan>
<tspan x="10" y="1146">  │ │ ├── inherits@2.0.3 </tspan>
<tspan x="10" y="1162">  │ │ └── readable-stream@2.2.9 </tspan>
<tspan x="10" y="1178">  │ ├── nwmatcher@1.3.9 </tspan>
<tspan x="10" y="1194">  │ ├── parse5@1.5.1 </tspan>
<tspan x="10" y="1210">  │ └── xmlhttprequest@1.8.0 </tspan>
<tspan x="10" y="1226">  ├── lodash@2.4.2 </tspan>
<tspan x="10" y="1242">  ├─┬ minimize@1.8.1 </tspan>
<tspan x="10" y="1258">  │ ├── argh@0.1.4 </tspan>
<tspan x="10" y="1274">  │ ├── async@1.5.2 </tspan>
<tspan x="10" y="1290">  │ ├─┬ cli-color@1.1.0 </tspan>
<tspan x="10" y="1306">  │ │ └── ansi-regex@2.1.1 </tspan>
<tspan x="10" y="1322">  │ ├─┬ diagnostics@1.0.1 </tspan>
<tspan x="10" y="1338">  │ │ ├─┬ colorspace@1.0.1 </tspan>
<tspan x="10" y="1354">  │ │ │ ├─┬ color@0.8.0 </tspan>
<tspan x="10" y="1370">  │ │ │ │ ├── color-convert@0.5.3 </tspan>
<tspan x="10" y="1386">  │ │ │ │ └─┬ color-string@0.3.0 </tspan>
<tspan x="10" y="1402">  │ │ │ │   └── color-name@1.1.2 </tspan>
<tspan x="10" y="1418">  │ │ │ └── text-hex@0.0.0 </tspan>
<tspan x="10" y="1434">  │ │ ├─┬ enabled@1.0.2 </tspan>
<tspan x="10" y="1450">  │ │ │ └── env-variable@0.0.3 </tspan>
<tspan x="10" y="1466">  │ │ └─┬ kuler@0.0.0 </tspan>
<tspan x="10" y="1482">  │ │   └── colornames@0.0.2 </tspan>
<tspan x="10" y="1498">  │ ├── emits@3.0.0 </tspan>
<tspan x="10" y="1514">  │ └── node-uuid@1.4.8 </tspan>
<tspan x="10" y="1530">  ├─┬ mongodb@2.2.26 </tspan>
<tspan x="10" y="1546">  │ ├── es6-promise@3.2.1 </tspan>
<tspan x="10" y="1562">  │ ├─┬ mongodb-core@2.1.10 </tspan>
<tspan x="10" y="1578">  │ │ ├── bson@1.0.4 </tspan>
<tspan x="10" y="1594">  │ │ └─┬ require_optional@1.0.0 </tspan>
<tspan x="10" y="1610">  │ │   ├── resolve-from@2.0.0 </tspan>
<tspan x="10" y="1626">  │ │   └── semver@5.3.0 </tspan>
<tspan x="10" y="1642">  │ └─┬ readable-stream@2.2.7 </tspan>
<tspan x="10" y="1658">  │   ├── buffer-shims@1.0.0 </tspan>
<tspan x="10" y="1674">  │   ├── core-util-is@1.0.2 </tspan>
<tspan x="10" y="1690">  │   ├── process-nextick-args@1.0.7 </tspan>
<tspan x="10" y="1706">  │   ├── string_decoder@1.0.0 </tspan>
<tspan x="10" y="1722">  │   └── util-deprecate@1.0.2 </tspan>
<tspan x="10" y="1738">  ├─┬ phantom@0.7.2 </tspan>
<tspan x="10" y="1754">  │ ├─┬ dnode@1.2.2 </tspan>
<tspan x="10" y="1770">  │ │ ├── dnode-protocol@0.2.2 </tspan>
<tspan x="10" y="1786">  │ │ ├── jsonify@0.0.0 </tspan>
<tspan x="10" y="1802">  │ │ └── weak@1.0.1 </tspan>
<tspan x="10" y="1818">  │ ├─┬ shoe@0.0.15 </tspan>
<tspan x="10" y="1834">  │ │ ├─┬ sockjs@0.3.7 </tspan>
<tspan x="10" y="1850">  │ │ │ ├── faye-websocket@0.4.4 </tspan>
<tspan x="10" y="1866">  │ │ │ └── node-uuid@1.3.3 </tspan>
<tspan x="10" y="1882">  │ │ └── sockjs-client@0.0.0-unreleasable </tspan>
<tspan x="10" y="1898">  │ ├── traverse@0.6.6 </tspan>
<tspan x="10" y="1914">  │ └── win-spawn@2.0.0 </tspan>
<tspan x="10" y="1930">  ├─┬ phantomjs@1.9.20 </tspan>
<tspan x="10" y="1946">  │ ├─┬ extract-zip@1.5.0 </tspan>
<tspan x="10" y="1962">  │ │ ├─┬ concat-stream@1.5.0 </tspan>
<tspan x="10" y="1978">  │ │ │ ├─┬ readable-stream@2.0.6 </tspan>
<tspan x="10" y="1994">  │ │ │ │ └── string_decoder@0.10.31 </tspan>
<tspan x="10" y="2010">  │ │ │ └── typedarray@0.0.6 </tspan>
<tspan x="10" y="2026">  │ │ ├── debug@0.7.4 </tspan>
<tspan x="10" y="2042">  │ │ ├── mkdirp@0.5.0 </tspan>
<tspan x="10" y="2058">  │ │ └─┬ yauzl@2.4.1 </tspan>
<tspan x="10" y="2074">  │ │   └─┬ fd-slicer@1.0.1 </tspan>
<tspan x="10" y="2090">  │ │     └── pend@1.2.0 </tspan>
<tspan x="10" y="2106">  │ ├─┬ fs-extra@0.26.7 </tspan>
<tspan x="10" y="2122">  │ │ ├── graceful-fs@4.1.11 </tspan>
<tspan x="10" y="2138">  │ │ ├── jsonfile@2.4.0 </tspan>
<tspan x="10" y="2154">  │ │ ├── klaw@1.3.1 </tspan>
<tspan x="10" y="2170">  │ │ └── path-is-absolute@1.0.1 </tspan>
<tspan x="10" y="2186">  │ ├─┬ hasha@2.2.0 </tspan>
<tspan x="10" y="2202">  │ │ ├── is-stream@1.1.0 </tspan>
<tspan x="10" y="2218">  │ │ └─┬ pinkie-promise@2.0.1 </tspan>
<tspan x="10" y="2234">  │ │   └── pinkie@2.0.4 </tspan>
<tspan x="10" y="2250">  │ ├── progress@1.1.8 </tspan>
<tspan x="10" y="2266">  │ ├─┬ request@2.67.0 </tspan>
<tspan x="10" y="2282">  │ │ ├─┬ bl@1.0.3 </tspan>
<tspan x="10" y="2298">  │ │ │ └─┬ readable-stream@2.0.6 </tspan>
<tspan x="10" y="2314">  │ │ │   └── string_decoder@0.10.31 </tspan>
<tspan x="10" y="2330">  │ │ ├── caseless@0.11.0 </tspan>
<tspan x="10" y="2346">  │ │ ├─┬ form-data@1.0.1 </tspan>
<tspan x="10" y="2362">  │ │ │ └─┬ async@2.3.0 </tspan>
<tspan x="10" y="2378">  │ │ │   └── lodash@4.17.4 </tspan>
<tspan x="10" y="2394">  │ │ ├─┬ har-validator@2.0.6 </tspan>
<tspan x="10" y="2410">  │ │ │ ├─┬ chalk@1.1.3 </tspan>
<tspan x="10" y="2426">  │ │ │ │ ├── ansi-styles@2.2.1 </tspan>
<tspan x="10" y="2442">  │ │ │ │ ├── escape-string-regexp@1.0.5 </tspan>
<tspan x="10" y="2458">  │ │ │ │ ├── has-ansi@2.0.0 </tspan>
<tspan x="10" y="2474">  │ │ │ │ ├── strip-ansi@3.0.1 </tspan>
<tspan x="10" y="2490">  │ │ │ │ └── supports-color@2.0.0 </tspan>
<tspan x="10" y="2506">  │ │ │ ├─┬ commander@2.9.0 </tspan>
<tspan x="10" y="2522">  │ │ │ │ └── graceful-readlink@1.0.1 </tspan>
<tspan x="10" y="2538">  │ │ │ └─┬ is-my-json-valid@2.16.0 </tspan>
<tspan x="10" y="2554">  │ │ │   ├── generate-function@2.0.0 </tspan>
<tspan x="10" y="2570">  │ │ │   ├─┬ generate-object-property@1.2.0 </tspan>
<tspan x="10" y="2586">  │ │ │   │ └── is-property@1.0.2 </tspan>
<tspan x="10" y="2602">  │ │ │   ├── jsonpointer@4.0.1 </tspan>
<tspan x="10" y="2618">  │ │ │   └── xtend@4.0.1 </tspan>
<tspan x="10" y="2634">  │ │ ├── node-uuid@1.4.8 </tspan>
<tspan x="10" y="2650">  │ │ ├── qs@5.2.1 </tspan>
<tspan x="10" y="2666">  │ │ ├── tough-cookie@2.2.2 </tspan>
<tspan x="10" y="2682">  │ │ └── tunnel-agent@0.4.3 </tspan>
<tspan x="10" y="2698">  │ ├─┬ request-progress@2.0.1 </tspan>
<tspan x="10" y="2714">  │ │ └── throttleit@1.0.0 </tspan>
<tspan x="10" y="2730">  │ └─┬ which@1.2.14 </tspan>
<tspan x="10" y="2746">  │   └── isexe@2.0.0 </tspan>
<tspan x="10" y="2762">  ├─┬ pretty@0.1.2 </tspan>
<tspan x="10" y="2778">  │ └─┬ js-beautify@1.4.2 </tspan>
<tspan x="10" y="2794">  │   ├─┬ config-chain@1.1.11 </tspan>
<tspan x="10" y="2810">  │   │ ├── ini@1.3.4 </tspan>
<tspan x="10" y="2826">  │   │ └── proto-list@1.2.4 </tspan>
<tspan x="10" y="2842">  │   ├── mkdirp@0.3.5 </tspan>
<tspan x="10" y="2858">  │   └─┬ nopt@2.1.2 </tspan>
<tspan x="10" y="2874">  │     └── abbrev@1.1.0 </tspan>
<tspan x="10" y="2890">  ├─┬ request@2.81.0 </tspan>
<tspan x="10" y="2906">  │ ├── aws-sign2@0.6.0 </tspan>
<tspan x="10" y="2922">  │ ├── aws4@1.6.0 </tspan>
<tspan x="10" y="2938">  │ ├── caseless@0.12.0 </tspan>
<tspan x="10" y="2954">  │ ├─┬ combined-stream@1.0.5 </tspan>
<tspan x="10" y="2970">  │ │ └── delayed-stream@1.0.0 </tspan>
<tspan x="10" y="2986">  │ ├── extend@3.0.0 </tspan>
<tspan x="10" y="3002">  │ ├── forever-agent@0.6.1 </tspan>
<tspan x="10" y="3018">  │ ├─┬ form-data@2.1.4 </tspan>
<tspan x="10" y="3034">  │ │ └── asynckit@0.4.0 </tspan>
<tspan x="10" y="3050">  │ ├─┬ har-validator@4.2.1 </tspan>
<tspan x="10" y="3066">  │ │ ├─┬ ajv@4.11.7 </tspan>
<tspan x="10" y="3082">  │ │ │ ├── co@4.6.0 </tspan>
<tspan x="10" y="3098">  │ │ │ └── json-stable-stringify@1.0.1 </tspan>
<tspan x="10" y="3114">  │ │ └── har-schema@1.0.5 </tspan>
<tspan x="10" y="3130">  │ ├─┬ hawk@3.1.3 </tspan>
<tspan x="10" y="3146">  │ │ ├── boom@2.10.1 </tspan>
<tspan x="10" y="3162">  │ │ ├── cryptiles@2.0.5 </tspan>
<tspan x="10" y="3178">  │ │ ├── hoek@2.16.3 </tspan>
<tspan x="10" y="3194">  │ │ └── sntp@1.0.9 </tspan>
<tspan x="10" y="3210">  │ ├─┬ http-signature@1.1.1 </tspan>
<tspan x="10" y="3226">  │ │ ├── assert-plus@0.2.0 </tspan>
<tspan x="10" y="3242">  │ │ ├─┬ jsprim@1.4.0 </tspan>
<tspan x="10" y="3258">  │ │ │ ├── assert-plus@1.0.0 </tspan>
<tspan x="10" y="3274">  │ │ │ ├── extsprintf@1.0.2 </tspan>
<tspan x="10" y="3290">  │ │ │ ├── json-schema@0.2.3 </tspan>
<tspan x="10" y="3306">  │ │ │ └── verror@1.3.6 </tspan>
<tspan x="10" y="3322">  │ │ └─┬ sshpk@1.13.0 </tspan>
<tspan x="10" y="3338">  │ │   ├── asn1@0.2.3 </tspan>
<tspan x="10" y="3354">  │ │   ├── assert-plus@1.0.0 </tspan>
<tspan x="10" y="3370">  │ │   ├── bcrypt-pbkdf@1.0.1 </tspan>
<tspan x="10" y="3386">  │ │   ├─┬ dashdash@1.14.1 </tspan>
<tspan x="10" y="3402">  │ │   │ └── assert-plus@1.0.0 </tspan>
<tspan x="10" y="3418">  │ │   ├── ecc-jsbn@0.1.1 </tspan>
<tspan x="10" y="3434">  │ │   ├─┬ getpass@0.1.6 </tspan>
<tspan x="10" y="3450">  │ │   │ └── assert-plus@1.0.0 </tspan>
<tspan x="10" y="3466">  │ │   ├── jodid25519@1.0.2 </tspan>
<tspan x="10" y="3482">  │ │   ├── jsbn@0.1.1 </tspan>
<tspan x="10" y="3498">  │ │   └── tweetnacl@0.14.5 </tspan>
<tspan x="10" y="3514">  │ ├── is-typedarray@1.0.0 </tspan>
<tspan x="10" y="3530">  │ ├── isstream@0.1.2 </tspan>
<tspan x="10" y="3546">  │ ├── json-stringify-safe@5.0.1 </tspan>
<tspan x="10" y="3562">  │ ├─┬ mime-types@2.1.15 </tspan>
<tspan x="10" y="3578">  │ │ └── mime-db@1.27.0 </tspan>
<tspan x="10" y="3594">  │ ├── oauth-sign@0.8.2 </tspan>
<tspan x="10" y="3610">  │ ├── performance-now@0.2.0 </tspan>
<tspan x="10" y="3626">  │ ├── qs@6.4.0 </tspan>
<tspan x="10" y="3642">  │ ├── safe-buffer@5.0.1 </tspan>
<tspan x="10" y="3658">  │ ├── stringstream@0.0.5 </tspan>
<tspan x="10" y="3674">  │ ├─┬ tough-cookie@2.3.2 </tspan>
<tspan x="10" y="3690">  │ │ └── punycode@1.4.1 </tspan>
<tspan x="10" y="3706">  │ └── tunnel-agent@0.6.0 </tspan>
<tspan x="10" y="3722">  └─┬ selenium-webdriver@2.53.3 </tspan>
<tspan x="10" y="3738">    ├── adm-zip@0.4.4 </tspan>
<tspan x="10" y="3754">    ├── tmp@0.0.24 </tspan>
<tspan x="10" y="3770">    ├─┬ ws@1.1.4 </tspan>
<tspan x="10" y="3786">    │ ├── options@0.0.6 </tspan>
<tspan x="10" y="3802">    │ └── ultron@1.0.2 </tspan>
<tspan x="10" y="3818">    └─┬ xml2js@0.4.4 </tspan>
<tspan x="10" y="3834">      └── sax@0.6.1</tspan>
</text>
</svg>
